# xmcd
#
# Track frame offsets:
#	150
#	5359
#	18692
#	24459
#	27945
#	42128
#	57709
#	60235
#	67650
#	77478
#	94126
#	106720
#	110062
#	127468
#	135620
#	150024
#	168308
#	187184
#	208013
#	216452
#	222379
#	239739
#	246053
#	259333
#	276656
#
# Disc length: 3898 seconds
#
# Revision: 0
# Processed by: cddbd v1.5.2PL0 Copyright (c) Steve Scherf et al.
# Submitted via: EZCDAudioConverter 8.3.2.1
#
DISCID=710f3819
DTITLE=Η εποχή της Μελισσάνθης-1980, Μ. Χατζηδάκις
DYEAR=2013
DGENRE=Έντεχνη
TTITLE0=Λέκκας Βασίλης - Πρόλογος
TTITLE1=Άνευ ερμηνευτού - Πού είναι η Μελισσάνθη
TTITLE2=Λέκκας Βασίλης-Χορωδία του Τρίτου - Στον μεγάλο δρόμο από άσφαλτο
TTITLE3=Άνευ ερμηνευτού - Πηγαίνοντας για βροχή
TTITLE4=Άνευ ερμηνευτού - Η βροχή
TTITLE5=Φαραντούρη Μαρία - Το πρόσωπο της νύχτας
TTITLE6=Μιχαλισλής Γιώργος - Φοβόμουν
TTITLE7=Χορωδία του Τρίτου - Φοβόμουν με έπνιγε η σιωπή
TTITLE8=Άνευ ερμηνευτού - Το εμβατήριο της Μελισσάνθης
TTITLE9=Άνευ ερμηνευτού - Ελεημοσύνη από τον ουρανό
TTITLE10=Φαραντούρη Μαρία - Μιά πληγωμένη σκύλα
TTITLE11=Άνευ ερμηνευτού - Μικρή μπάντα στον δρόμο
TTITLE12=Παιδική χορωδία Ροτόντα Θεσσαλονίκης - Τον φίλο μας που χάσαμε
TTITLE13=Φαραντούρη Μαρία - Ο τελικός συμβιβασμός Α'
TTITLE14=Χορωδία του Τρίτου - Ο τελικός συμβιβασμός Β'
TTITLE15=Φαραντούρη Μαρία - Μητέρα κι αδελφή
TTITLE16=Άνευ ερμηνευτού - Το εμβατήριο της Μελισσάνθης
TTITLE17=Λέκκας Βασίλης-Μιχαλισλής Γιώργος - Ένα ρολόϊ στο καπηλειό
TTITLE18=Φαραντούρη Μαρία - Οι μάνες στις καμένες στέγες
TTITLE19=Παιδική χορωδία Ροτόντα Θεσσαλονίκης - Μητέρα κι αδελφή
TTITLE20=Άνευ ερμηνευτού - Χορός της Μελισσάνθης που γίνεται λησμονημένη
TTITLE21=Λέκκας Βασίλης-Γαδέδη Στέλλα - Η ψυχρή αλήθεια
TTITLE22=Χορωδία του Τρίτου - Ο επιτάφιος
TTITLE23=Φαραντούρη Μαρία-Παιδική χορ. Ροτόντα Θεσσ.-Χορωδία του Τρίτου - Η λη
TTITLE23=σμονημένη
TTITLE24=Άνευ ερμηνευτού - Μητέρα κι αδελφή
EXTD=
EXTT0=
EXTT1=
EXTT2=
EXTT3=
EXTT4=
EXTT5=
EXTT6=
EXTT7=
EXTT8=
EXTT9=
EXTT10=
EXTT11=
EXTT12=
EXTT13=
EXTT14=
EXTT15=
EXTT16=
EXTT17=
EXTT18=
EXTT19=
EXTT20=
EXTT21=
EXTT22=
EXTT23=
EXTT24=
PLAYORDER=
